HIERARCHY
ROOT Hips
{
  OFFSET 0 0 0
  CHANNELS 6 Xposition Yposition Zposition Zrotation Xrotation Yrotation
  JOINT Spine
  {
    OFFSET 0 8.83416 0
    CHANNELS 3 Zrotation Xrotation Yrotation
    JOINT Spine1
    {
      OFFSET 0 17.8555 0
      CHANNELS 3 Zrotation Xrotation Yrotation
      JOINT Neck
      {
        OFFSET 0 17.7822 1.61656
        CHANNELS 3 Zrotation Xrotation Yrotation
        JOINT Head
        {
          OFFSET 0 15.0827 -2.15467
          CHANNELS 3 Zrotation Xrotation Yrotation
          End Site
          {
            OFFSET 0 26.9334 0
          }
        }
      }
      JOINT LeftShoulder
      {
        OFFSET 4.28078 15.9895 -0.632416
        CHANNELS 3 Zrotation Xrotation Yrotation
        JOINT LeftArm
        {
          OFFSET 11.7359 0 0
          CHANNELS 3 Zrotation Xrotation Yrotation
          JOINT LeftForeArm
          {
            OFFSET 33.15 0 0
            CHANNELS 3 Zrotation Xrotation Yrotation
            JOINT LeftHand
            {
              OFFSET 28.5724 0 0
              CHANNELS 3 Zrotation Xrotation Yrotation
              End Site
              {
                OFFSET 16.1601 0 0
              }
            }
          }
        }
      }
      JOINT RightShoulder
      {
        OFFSET -4.29063 15.9895 -0.632416
        CHANNELS 3 Zrotation Xrotation Yrotation
        JOINT RightArm
        {
          OFFSET -11.7359 0 0
          CHANNELS 3 Zrotation Xrotation Yrotation
          JOINT RightForeArm
          {
            OFFSET -33.15 0 0
            CHANNELS 3 Zrotation Xrotation Yrotation
            JOINT RightHand
            {
              OFFSET -28.5724 0 0
              CHANNELS 3 Zrotation Xrotation Yrotation
              End Site
              {
                OFFSET -16.1601 0 0
              }
            }
          }
        }
      }
    }
  }
  JOINT LeftUpLeg
  {
    OFFSET 10.7734 0 0
    CHANNELS 3 Zrotation Xrotation Yrotation
    JOINT LeftLeg
    {
      OFFSET 0 -54.0627 0
      CHANNELS 3 Zrotation Xrotation Yrotation
      JOINT LeftFoot
      {
        OFFSET 0 -48.9411 0
        CHANNELS 3 Zrotation Xrotation Yrotation
        JOINT LeftToeBase
        {
          OFFSET 0 -7.00269 16.1601
          CHANNELS 3 Zrotation Xrotation Yrotation
          End Site
          {
            OFFSET 0 0 4.30935
          }
        }
      }
    }
  }
  JOINT RightUpLeg
  {
    OFFSET -10.7734 0 0
    CHANNELS 3 Zrotation Xrotation Yrotation
    JOINT RightLeg
    {
      OFFSET 0 -54.0627 0
      CHANNELS 3 Zrotation Xrotation Yrotation
      JOINT RightFoot
      {
        OFFSET 0 -48.9411 0
        CHANNELS 3 Zrotation Xrotation Yrotation
        JOINT RightToeBase
        {
          OFFSET 0 -7.00269 16.1601
          CHANNELS 3 Zrotation Xrotation Yrotation
          End Site
          {
            OFFSET 0 0 4.30935
          }
        }
      }
    }
  }
}
MOTION
Frames:	21
Frame Time:	0.00833333
-77.9696 117.937 10.2156 -4.45048 57.5962 -79.4621 -1.91466 -32.2945 -0.453428 2.20396 52.465 -0.984927 -29.0659 52.0324 21.8377 17.506 -26.2167 17.6378 -3.19006 11.9101 24.1527 -27.9522 33.7238 -6.02611 -14.2238 0.913919 -5.33241 104.14 -18.0847 -14.3255 -16.8419 30.2043 -3.10503 83.7746 70.044 0.256819 -3.15789 1.29227 52.3078 7.31027 1.69946 -17.7666 65.9574 -58.3138 42.5505 -21.1719 63.1222 35.734 8.96105 -8.97858 12.8476 3.53113e-031 6.36111e-015 -3.18055e-015 2.88155 -57.8119 -8.4801 88.1303 80.71 -65.9007 -4.33982 -14.2166 -22.9781 6.36111e-015 -2.38542e-015 3.18055e-015 
-79.8145 116.965 9.96087 -5.75131 57.8421 -76.5234 -1.11255 -31.9061 -0.87565 1.87626 51.9917 -1.4727 -30.8663 51.3997 22.4886 19.4636 -25.4274 18.4198 -2.76572 11.9688 24.7315 -27.4945 36.0791 -5.55143 -14.5291 0.71904 -6.45457 103.634 -17.4499 -13.684 -16.557 29.6582 -1.26559 80.0864 68.7111 3.88659 -4.10363 1.6279 51.7293 6.49245 2.65586 -16.8441 64.2642 -58.0571 40.5517 -17.2862 61.0291 31.9415 8.93258 -8.43929 12.2862 0 3.18055e-015 -0 3.46181 -57.0956 -8.4281 63.9875 79.491 -41.7802 -1.43795 -12.7738 -20.5972 3.18055e-015 0 -0 
-81.6531 115.913 9.73742 -6.7577 57.9693 -74.0021 -0.164974 -31.7987 -0.99764 1.24776 51.8103 -1.55672 -31.8644 51.5844 22.9172 20.6809 -25.7771 18.8916 -2.17146 12.1509 25.0765 -27.0581 38.0423 -5.33708 -14.791 0.313113 -7.4696 103.14 -17.1039 -13.1048 -15.891 29.0388 0.335409 76.1585 67.0359 7.43341 -4.23946 1.88776 51.0839 4.72703 3.24492 -16.0948 62.946 -57.6493 38.7315 -15.2116 58.928 29.6978 9.25999 -8.11002 11.6097 -0 0 3.18055e-015 4.29944 -56.568 -8.2786 44.2012 76.9815 -22.6253 1.94812 -10.8646 -17.5313 6.36111e-015 -3.97569e-016 -3.97569e-016 
-83.4377 114.784 9.60833 -7.30328 57.7283 -71.8562 0.105125 -31.8245 -1.13941 1.63963 51.6298 -1.96268 -32.7833 50.8195 22.8535 22.4019 -24.7094 19.2051 -1.9829 12.2706 24.9075 -26.7213 39.8367 -4.8905 -14.9322 -0.0859633 -8.39989 102.553 -17.0284 -12.7686 -15.2809 28.2082 1.80577 73.6873 64.9801 9.10163 -4.18736 1.92727 50.1262 2.6586 3.53656 -14.9386 61.2444 -57.3884 37.1103 -12.555 57.0044 24.5996 9.53625 -7.29819 12.3248 7.06225e-031 6.36111e-015 -6.36111e-015 4.50443 -56.19 -8.18859 31.9214 73.2593 -10.6791 5.3362 -8.48907 -14.8201 -1.20477e-031 3.23025e-015 2.13694e-015 
-85.1603 113.587 9.47392 -7.52923 57.4828 -70.042 0.846811 -32.0828 -1.34379 0.85501 51.8545 -2.0031 -34.5454 49.9198 23.2656 24.7334 -24.2623 20.0714 -1.95669 12.0698 25.3478 -26.0297 42.1841 -4.40964 -14.8249 -0.461287 -9.7828 101.874 -16.2133 -11.8216 -14.8722 27.0852 3.99776 71.2479 62.5515 10.8305 -3.5755 2.03972 48.7016 0.428274 3.60649 -13.5047 59.9057 -57.2591 36.0325 -10.8205 55.637 21.8506 10.2039 -6.89999 12.109 -3.18055e-015 0 -6.36111e-015 4.7178 -55.9612 -8.12406 23.9158 68.9485 -3.28401 8.36112 -5.75577 -11.7824 6.36111e-015 -5.56597e-015 -3.18055e-015 
-86.8905 112.307 9.41839 -7.42295 56.8554 -68.4988 1.06059 -32.2511 -1.35945 0.696224 51.6002 -2.0028 -35.556 49.9489 23.3877 26.187 -24.1913 20.3019 -1.85811 12.3828 25.2026 -25.4938 44.0431 -4.05936 -14.5262 -0.0630315 -10.0735 100.876 -15.5106 -11.7539 -14.2162 26.617 5.33961 68.2842 60.3374 12.7122 -3.13633 2.19725 47.1288 -1.17618 3.68684 -11.9209 58.085 -57.1424 34.8516 -9.68841 54.38 20.243 10.1934 -6.32649 11.986 -1.59028e-015 0 -1.27222e-014 4.44519 -55.7965 -8.14072 18.6184 64.3424 1.4708 11.6731 -2.79345 -9.3989 -3.18055e-015 -3.97569e-015 1.59028e-015 
-88.5198 110.922 9.35214 -7.29836 56.2715 -66.5775 1.51307 -32.3124 -1.48972 0.00575463 51.6751 -1.93106 -36.1871 49.1609 23.022 27.9927 -23.6786 20.5678 -1.44923 12.435 25.0194 -25.2493 46.2154 -3.48328 -14.7236 -1.53026 -12.2591 99.9037 -15.1697 -10.2141 -13.1478 25.6244 6.78393 65.854 57.8711 13.6149 -2.67705 2.28235 45.4904 -2.82258 3.66093 -10.4168 56.0651 -57.5148 33.3505 -8.58583 53.5501 18.8507 9.87449 -5.60205 11.7309 1.59028e-015 0 6.36111e-015 3.55655 -55.6174 -8.73834 15.15 59.4223 4.27936 14.8865 0.0528518 -7.36869 -3.18055e-015 3.18055e-015 4.77083e-015 
-90.1461 109.518 9.27775 -7.04626 55.7404 -65.1531 1.77356 -32.5584 -1.37381 0.381662 51.7078 -2.07684 -36.9306 49.1359 22.7618 29.4431 -23.7572 20.5719 -1.30341 12.6757 24.3781 -25.1982 47.9368 -2.76322 -14.7175 -2.04648 -13.6413 98.802 -14.8426 -9.54194 -12.3881 24.8197 7.88821 63.626 55.6995 13.997 -2.50972 2.32779 44.0977 -3.91066 3.6562 -9.15281 54.664 -57.6112 32.4429 -7.97478 53.092 18.1935 9.75996 -5.10344 11.2555 1.59028e-015 0 -3.18055e-015 3.11749 -55.5178 -8.83173 12.8209 54.7334 5.7031 17.966 2.53119 -5.74186 3.18055e-015 2.38542e-015 4.77083e-015 
-91.7409 107.991 9.23033 -6.09968 54.937 -63.9703 1.48778 -33.0192 -1.44355 0.97265 51.457 -2.35348 -37.6123 50.1153 22.8808 30.3227 -24.7221 20.5434 -1.08635 13.3178 23.4187 -25.4723 49.7236 -1.74829 -14.1962 -1.24406 -14.4257 97.4912 -13.1805 -8.9464 -11.5376 24.2095 9.38603 61.4712 53.361 13.6537 -2.44619 2.20611 43.0137 -4.71754 3.501 -8.04327 52.9105 -58.1179 30.9363 -8.50538 52.8178 18.3442 9.55933 -4.27342 11.2353 1.59028e-015 3.18055e-015 -3.18055e-015 1.73735 -55.631 -9.29511 11.3963 49.7961 6.38836 20.5088 4.67542 -4.53296 3.18055e-015 3.18055e-015 -0 
-93.304 106.449 9.15646 -5.11782 54.1039 -63.0943 1.43094 -33.3376 -1.5267 0.875016 51.2577 -2.37501 -39.2254 50.5722 23.3975 31.9989 -25.399 21.0207 -1.05755 13.5563 22.9528 -25.7555 51.0782 -0.624078 -13.8795 -0.215442 -15.1776 96.0681 -10.9824 -8.04288 -10.7497 23.5557 11.2965 59.4998 50.8626 13.103 -2.74592 2.42171 41.6082 -4.7702 3.74185 -6.67687 51.302 -58.442 30.1255 -8.18247 52.9393 17.3357 9.17092 -3.71517 10.7698 5.29669e-031 9.54166e-015 -3.18055e-015 0.484111 -55.7634 -9.62446 10.3887 45.3392 6.66654 22.5333 6.52399 -3.62982 1.76556e-031 -3.18055e-015 3.18055e-015 
-94.9614 104.738 9.05495 -4.58613 53.4167 -61.9523 1.67202 -33.3875 -1.15715 1.5685 50.6816 -2.40159 -39.8457 51.9155 23.5069 32.7358 -26.6519 20.8323 -0.81602 14.2209 21.8286 -26.1585 52.603 0.329591 -14.6044 -3.10674 -17.9723 93.9344 -12.8043 -6.9665 -9.99878 23.3989 12.0116 57.0769 48.6765 12.857 -2.53588 2.69815 40.1466 -6.21138 3.90249 -5.14239 50.1417 -58.5904 29.644 -7.87967 53.8148 16.1314 10.4161 -5.52037 6.8018 3.18055e-015 1.59028e-015 3.18055e-015 -0.476153 -55.7735 -9.93203 9.67575 40.8898 7.16488 24.685 8.62111 -3.48026 -0 -3.18055e-015 -0 
-96.5853 102.967 8.8924 -4.01121 52.6536 -60.6987 1.71165 -33.2448 -1.02999 2.33117 49.9733 -2.62759 -41.4639 52.6208 23.9438 34.5075 -27.3617 21.1262 -0.816642 14.7858 21.0069 -26.4227 53.8777 1.2916 -14.2114 -3.19331 -19.1204 91.5871 -11.9104 -6.20948 -9.55139 23.3226 12.9306 54.7261 46.6752 12.584 -2.56601 2.84813 38.5665 -7.38228 3.96911 -3.48295 48.8918 -58.9148 28.7969 -8.78793 55.234 16.5334 9.78641 -10.5015 3.15894 0 0 -9.54166e-015 -2.00595 -55.8389 -10.5239 9.71787 36.8297 7.05159 26.3816 10.4833 -3.5699 3.18055e-015 1.59028e-015 -6.36111e-015 
-98.2908 101.09 8.677 -3.58266 52.0274 -59.4639 2.02298 -33.0599 -0.812644 2.99492 49.1337 -2.78256 -42.6632 53.9932 24.5458 35.3131 -28.7311 21.1956 -0.868201 15.5067 20.4327 -26.4405 54.7622 1.86466 -13.3047 -1.83992 -19.1752 89.0046 -9.93847 -5.98251 -9.10459 23.3426 14.0382 52.4349 44.8071 11.8945 -2.55004 2.70848 37.132 -8.87616 3.7282 -2.1206 48.3041 -59.2773 29.0184 -10.1394 57.9435 13.3912 12.8451 -16.3232 5.49148 -0 0 3.18055e-015 -3.18795 -55.9709 -11.4812 9.53373 33.2122 6.36053 28.1547 12.3023 -2.88645 0 0 -0 
-99.7908 99.2358 8.47599 -2.57534 51.27 -58.5632 1.92437 -32.9946 -0.822933 3.71202 48.323 -3.05817 -44.2541 54.6282 25.0303 36.763 -29.4639 21.4278 -1.03252 15.8382 19.6612 -27.1992 55.5995 3.43138 -12.41 -0.602802 -19.6946 86.4576 -7.52608 -5.0817 -8.9973 23.4012 14.9169 50.21 43.4205 11.5777 -2.70725 2.10027 35.4283 -10.2429 3.01423 -0.552003 47.2381 -60.1657 29.5756 -11.5601 60.896 7.97644 17.5641 -20.061 12.3005 7.95139e-016 -7.95139e-016 3.18055e-015 -5.17036 -56.4804 -13.4948 9.30375 30.408 5.58489 30.4028 13.3105 -2.2305 -8.82781e-032 -1.59028e-015 -3.18055e-015 
-101.296 97.16 7.76102 -3.0047 51.9786 -55.2 3.21068 -31.8586 -1.40565 4.68974 46.2338 -4.32546 -45.9484 54.9449 25.4088 38.3278 -29.8022 21.6022 -1.34071 16.1912 19.187 -27.7639 55.5548 4.90282 -12.8769 -3.84923 -21.9375 82.277 -10.3285 -4.60495 -9.1839 23.5797 15.8636 47.7478 41.6634 11.5244 -2.42162 1.49848 33.8151 -11.6779 2.14071 0.919263 48.0413 -62.8257 29.9406 -13.2563 64.2603 2.09363 23.1978 -21.8209 19.6914 -2.38542e-015 7.95139e-016 -3.18055e-015 -7.18939 -57.0777 -18.1456 8.94332 28.2288 4.74856 32.5146 12.989 -1.35484 -7.95139e-016 -2.38542e-015 -3.18055e-015 
-102.865 95.2406 7.88296 -0.661098 49.7556 -56.907 2.02657 -32.5128 -0.764431 4.66083 46.6921 -3.36798 -47.2742 54.9407 25.3856 40.0023 -30.1381 21.7849 -1.64099 16.2317 19.0023 -28.0585 55.5124 6.04033 -12.0442 -4.44657 -22.6798 77.7571 -10.4428 -4.49461 -9.36117 23.3395 16.6032 45.6173 40.1995 11.1493 -2.22473 0.689556 32.5292 -12.8015 1.09321 2.18972 46.0683 -62.2242 32.2301 -14.4436 66.6614 0.731282 28.3194 -24.5393 24.6341 3.97569e-016 -3.97569e-016 1.27222e-014 -8.845 -57.9855 -18.5152 8.78471 26.9031 3.69135 34.4151 12.5684 -0.349868 2.20695e-032 -3.97569e-016 3.18055e-015 
-104.391 93.2253 7.34518 -0.344816 49.2924 -55.5592 2.31037 -31.5933 -0.587425 5.22189 45.6574 -3.44077 -46.7466 54.993 24.388 40.2316 -30.504 21.2077 -1.57124 16.3894 18.7428 -28.2486 54.2584 6.75148 -11.3191 -6.26273 -23.2513 72.0095 -12.4569 -5.4259 -9.19776 23.1139 16.9461 43.3139 38.821 10.8011 -2.12584 -0.0466762 31.3698 -13.8973 0.132921 3.42616 47.1528 -63.768 35.1941 -17.0659 70.5045 1.928 32.4798 -26.0414 27.6964 -0 0 6.36111e-015 -10.2148 -58.8988 -21.2194 8.67622 26.3523 2.21707 35.9072 11.6841 1.03037 1.31695e-015 2.11209e-016 -6.36111e-015 
-105.686 91.2881 6.77619 0.755974 48.7645 -54.675 2.37456 -30.8681 -0.490433 5.26678 44.7849 -3.31711 -46.0681 55.1568 23.4164 40.673 -31.5712 21.0049 -1.35929 16.372 18.7141 -28.3024 52.7743 7.08771 -10.5579 -8.90437 -23.3018 64.5959 -15.8922 -7.85634 -8.97899 22.7203 17.2555 40.9109 36.8959 10.7393 -1.64473 -0.38224 30.0952 -15.0852 -0.602254 5.00296 48.5234 -65.9986 38.9214 -19.8014 74.4269 4.32609 34.4145 -27.1071 29.1431 2.20695e-032 3.97569e-016 -3.18055e-015 -12.6518 -60.4463 -24.7046 8.34795 26.5926 2.10859 37.3954 10.8728 1.98113 -4.41391e-032 -3.97569e-016 -6.36111e-015 
-106.968 89.341 5.67514 0.981266 49.7058 -52.246 3.18234 -29.9981 -0.510411 6.36033 43.7758 -3.92121 -43.6023 55.0959 21.0514 40.3429 -32.5767 19.9882 -0.850738 16.1202 18.2748 -28.2409 49.9051 7.11434 -9.67203 -11.9055 -23.7779 55.369 -18.9942 -10.0949 -8.69332 21.9727 16.8951 38.564 35.6335 10.841 -1.87256 -1.11389 28.8369 -15.9638 -1.53987 6.46758 53.5724 -69.5499 43.8847 -28.1458 78.445 12.8188 35.031 -28.0588 29.3284 0 0 -3.18055e-015 -15.2543 -62.5075 -29.6845 7.72063 27.6848 3.67334 38.4805 9.39614 2.41444 -7.95139e-016 -7.95139e-016 -3.18055e-015 
-108.177 87.5627 4.9857 1.82372 49.1675 -51.3513 3.36024 -28.9293 -0.398214 6.14759 43.1711 -3.69946 -42.8348 54.6157 19.6838 40.7531 -33.3425 19.677 -0.867941 15.8813 18.8731 -27.6553 47.1131 6.65803 -7.51883 -13.8741 -23.6315 45.7468 -19.4915 -10.1282 -8.90987 21.4658 17.3119 36.4635 33.4668 11.2569 -1.89949 -0.903208 27.4196 -16.8931 -1.63401 8.03085 56.6473 -71.3407 48.0784 -41.0734 81.3223 25.5729 35.6761 -28.8894 29.6923 3.97569e-016 0 9.54166e-015 -17.9881 -64.2856 -32.4843 7.87073 29.2828 4.80986 38.0152 8.06345 2.64069 1.59028e-015 -7.95139e-016 -9.54166e-015 
-109.482 85.7449 4.2425 2.18087 48.7454 -50.0329 3.73754 -27.8075 -0.293086 6.32206 42.9194 -3.70601 -42.4526 53.9437 18.3183 41.5979 -34.1608 19.5182 -1.1042 15.4416 19.4725 -27.2674 43.703 6.27629 -3.90821 -14.2745 -23.5824 36.4842 -17.5361 -7.80369 -9.46953 20.5926 18.0765 34.765 31.5212 11.08 -2.0869 -1.07341 26.5513 -18.2048 -2.00112 8.84975 60.0249 -72.9446 52.0952 -63.1254 83.5857 46.8705 36.305 -29.7936 30.3774 -7.95139e-016 0 -3.18055e-015 -20.6706 -66.0256 -34.8571 8.07579 31.5129 7.10739 38.0766 6.31076 2.32782 -3.18055e-015 -1.59028e-015 -0 
